<?xml version="1.0" encoding="UTF-8" standalone="no"?>
<!-- Created with Inkscape (http://www.inkscape.org/) -->

<svg
   width="179.54761mm"
   height="32.017292mm"
   viewBox="0 0 179.54761 32.017292"
   version="1.1"
   id="SVGRoot"
   sodipodi:docname="frontpage.svg"
   inkscape:version="1.3.2 (1:1.3.2+202311252150+091e20ef0f)"
   inkscape:export-filename="frontpage.png"
   inkscape:export-xdpi="300"
   inkscape:export-ydpi="300"
   xmlns:inkscape="http://www.inkscape.org/namespaces/inkscape"
   xmlns:sodipodi="http://sodipodi.sourceforge.net/DTD/sodipodi-0.dtd"
   xmlns="http://www.w3.org/2000/svg"
   xmlns:svg="http://www.w3.org/2000/svg">
  <sodipodi:namedview
     id="namedview1700"
     pagecolor="#ffffff"
     bordercolor="#000000"
     borderopacity="0.25"
     inkscape:showpageshadow="2"
     inkscape:pageopacity="1"
     inkscape:pagecheckerboard="0"
     inkscape:deskcolor="#d1d1d1"
     inkscape:document-units="mm"
     showgrid="false"
     inkscape:zoom="0.57605485"
     inkscape:cx="228.27687"
     inkscape:cy="617.99671"
     inkscape:window-width="1920"
     inkscape:window-height="1016"
     inkscape:window-x="0"
     inkscape:window-y="27"
     inkscape:window-maximized="1"
     inkscape:current-layer="layer1"
     inkscape:pageshadow="2"
     inkscape:snap-global="false"
     inkscape:export-bgcolor="#ffffffff" />
  <defs
     id="defs1695" />
  <g
     inkscape:groupmode="layer"
     id="layer4"
     inkscape:label="Header"
     transform="translate(-15.225522,-9.6430833)">
    <path
       style="font-size:25.4px;font-family:'Back to Black';-inkscape-font-specification:'Back to Black, Normal';text-align:end;text-anchor:end;fill:#ffffff;stroke-width:2.884"
       d="m 47.217569,11.347193 q 0.2286,-0.2286 0.7112,-0.3556 0.508,-0.127 1.0668,-0.1524 0.5842,-0.0254 1.143,0.0508 0.5842,0.0508 0.9398,0.2286 0.3556,0.1524 0.4318,0.4318 0.0762,0.254 -0.3302,0.5842 -1.4224,1.1938 -2.5908,3.048 -1.1684,1.8288 -2.0828,4.0132 -0.889,2.1844 -1.4986,4.5974 -0.6096,2.413 -0.9144,4.7752 -0.3048,2.3368 -0.2794,4.4704 0.0254,2.1336 0.4064,3.7846 0.381,1.651 1.143,2.667 0.762,1.0414 1.905,1.143 0.254,0.0254 0.3556,0.1778 0.1016,0.1778 0.0508,0.3556 -0.0254,0.1778 -0.1778,0.3302 -0.1524,0.1524 -0.381,0.1524 -2.1336,0.1016 -3.556,-0.7366 -1.4224,-0.8128 -2.2606,-2.3114 -0.8382,-1.4732 -1.1684,-3.4798 -0.3048,-2.0066 -0.2286,-4.2926 0.0762,-1.9558 0.3556,-4.0132 0.3048,-2.0574 0.8382,-4.1148 l -0.9144,1.4478 q -2.4892,3.9116 -4.9022,6.7818 -2.7432,3.2512 -5.1308,4.8006 -1.8796,1.2192 -3.4036,1.2192 -0.2032,0 -0.4064,-0.0254 -0.1778,-0.0254 -0.381,-0.0762 -1.0414,-0.2286 -1.27,-1.0922 -0.1778,-0.5588 -0.0254,-1.3716 0.1778,-0.8128 0.7366,-1.9812 0.4572,-0.9906 1.0922,-2.1336 0.635,-1.1176 1.3716,-2.3368 0.6096,-1.0668 1.2446,-2.1844 0.635,-1.1176 1.2192,-2.2352 0.5842,-1.143 1.0668,-2.2606 0.4826,-1.1176 0.7874,-2.1844 1.27,-4.5974 -1.9558,-6.4262 -1.0668,-0.5842 -2.54,-0.5842 -1.4732,-0.0254 -3.0734,0.5588 -1.27,0.4572 -2.3368,1.2954 -1.0414,0.8128 -1.8542,1.8542 -0.8128,1.016 -1.3462,2.1336 -0.5334,1.0922 -0.762,2.0828 -0.254,1.0668 -0.1524,1.9304 0.127,0.8636 0.508,1.4224 0.4064,0.5588 1.0668,0.762 0.6604,0.2032 1.4986,-0.0762 0.3556,-0.1016 0.381,0.2794 0.0254,0.3556 -0.2794,0.889 -0.3048,0.508 -0.9398,1.016 -0.635,0.508 -1.6002,0.6604 -1.2954,0.2032 -2.1082,-0.3048 -0.8128,-0.5334 -1.1684,-1.4986 -0.3556,-0.9652 -0.2794,-2.2606 0.0508,-1.3208 0.508,-2.6924 0.6604,-1.9812 1.9812,-3.6068 1.3208,-1.651 3.2258,-2.9464 1.9558,-1.3716 3.9878,-2.0574 2.032,-0.6858 4.064,-0.8128 1.2446,-0.0762 2.4892,0.1016 1.2446,0.1778 2.286,0.6604 1.0668,0.4826 1.8542,1.2954 0.7874,0.8128 1.1176,2.0066 0.4826,1.651 -0.1778,4.0386 -0.3048,1.0668 -0.7874,2.159 -0.4572,1.0922 -1.0414,2.2098 -0.5842,1.0922 -1.2192,2.1844 -0.635,1.0668 -1.2446,2.0828 -0.6096,1.0414 -1.1938,2.032 -0.5842,0.9906 -1.016,1.8288 -0.4064,0.8636 -0.6096,1.5494 -0.2032,0.6858 -0.0762,1.1176 0.2032,0.6604 0.8636,0.4064 0.6604,-0.254 1.5748,-1.0922 0.9144,-0.8382 1.9812,-2.0828 1.0922,-1.2446 2.1082,-2.5908 1.0414,-1.3462 1.9304,-2.6162 0.9144,-1.27 1.4732,-2.1336 0.9652,-1.4732 1.8288,-2.9972 0.8636,-1.524 1.651,-2.9972 0.9144,-1.9812 2.0828,-3.6322 1.1938,-1.6764 2.3368,-2.8702 z m 0.330177,17.5768 q -0.1524,-0.4572 0.1016,-1.4732 0.2286,-1.016 0.7366,-2.3622 0.4826,-1.3716 1.143,-2.9464 0.6604,-1.5748 1.3462,-3.175 0.7112,-1.6002 1.3462,-3.0988 0.6604,-1.524 1.143,-2.7178 0.4826,-1.1938 0.7112,-1.9812 0.2286,-0.7874 0.0762,-0.9398 -0.1778,-0.1524 0.1524,-0.3555999 0.3556,-0.2032 0.8636,-0.2286 0.5334,-0.0254 1.0668,0.2286 0.5334,0.2539999 0.762,1.0159999 0.1524,0.5334 -0.1524,1.651 -0.3048,1.1176 -0.889,2.5908 -0.5842,1.4478 -1.3716,3.1242 -0.762,1.6764 -1.5494,3.3274 0.5334,-0.4318 1.1938,-0.9398 0.6604,-0.5334 1.3208,-1.0922 0.6858,-0.5588 1.3208,-1.1176 0.635,-0.5842 1.1176,-1.0668 0.508,-0.4826 0.8128,-0.8636 0.3048,-0.4064 0.3048,-0.635 0,-0.2286 0.381,-0.127 0.381,0.1016 0.762,0.4826 0.381,0.3556 0.5588,0.9398 0.1778,0.5588 -0.2286,1.2446 -0.3048,0.5334 -0.9652,1.0414 -0.635,0.508 -1.4478,0.9652 -0.8128,0.4572 -1.7018,0.8636 -0.889,0.4064 -1.7018,0.7366 0.381,0.5842 0.9398,1.651 0.5842,1.0668 1.2954,2.3622 0.7112,1.27 1.524,2.5908 0.8128,1.3208 1.6764,2.413 0.889,1.0922 1.7526,1.778 0.889,0.7112 1.7272,0.7366 0.2286,0 0.1778,0.3302 -0.0254,0.3556 -0.3302,0.762 -0.3048,0.4064 -0.8636,0.7366 -0.5588,0.3556 -1.3462,0.3302 -1.1938,-0.0254 -2.1336,-0.9652 -0.9398,-0.9398 -1.7018,-2.3622 -0.7366,-1.397 -1.3462,-3.0226 -0.5842,-1.651 -1.0922,-3.0988 -0.4826,-1.4478 -0.9144,-2.4384 -0.4064,-1.016 -0.8382,-1.1684 -0.3556,0.1778 -0.635,0.3302 -0.254,0.127 -0.4318,0.254 -0.5588,1.1684 -1.0414,2.2352 -0.4572,1.0414 -0.7874,1.8796 -0.3048,0.8382 -0.4572,1.4224 -0.127,0.5842 0,0.8128 0.1016,0.2032 -0.1778,0.4318 -0.254,0.2032 -0.6604,0.2032 -0.4318,0.0254 -0.8636,-0.254 -0.4572,-0.2794 -0.6858,-1.0414 z m 25.831763,-6.4516 q -0.2032,0.4318 -0.5842,1.1938 -0.381,0.7366 -0.9144,1.6002 -0.508,0.8382 -1.1176,1.7018 -0.6096,0.8636 -1.27,1.5748 -0.635,0.7112 -1.2954,1.1684 -0.6604,0.4572 -1.27,0.4572 -0.508,0.0254 -0.889,-0.2032 -0.3556,-0.2286 -0.5842,-0.635 -0.2286,-0.4318 -0.3048,-1.016 -0.0762,-0.6096 0,-1.2954 0,-0.127 0.0254,-0.2286 0.0254,-0.127 0.0508,-0.254 -0.4826,0.7112 -1.016,1.3716 -0.508,0.635 -1.0414,1.143 -0.5334,0.508 -1.0668,0.8128 -0.533399,0.3048 -1.015999,0.3048 -0.508,0.0254 -0.8636,-0.2032 -0.381,-0.2286 -0.6096,-0.635 -0.2286,-0.4318 -0.3048,-1.016 -0.0762,-0.6096 0,-1.2954 0.1016,-0.8382 0.4064,-1.778 0.2794,-0.9398 0.6604,-1.8796 0.381,-0.9398 0.762,-1.8034 0.4064,-0.889 0.685799,-1.6002 0.3048,-0.7112 0.4064,-1.1938 0.127,-0.4826 -0.0508,-0.6604 -0.1778,-0.1524 0.1524,-0.3556 0.3556,-0.2032 0.8636,-0.2286 0.508,-0.0254 1.0414,0.2286 0.5588,0.254 0.7874,1.016 0.2286,0.7366 -0.0762,1.8034 -0.3048,1.0414 -0.8636,2.1844 -0.5334,1.143 -1.1684,2.2606 -0.6096,1.1176 -1.0414,2.0066 -0.406399,0.8636 -0.482599,1.397 -0.0508,0.508 0.533399,0.4572 0.3048,-0.0254 0.889,-0.635 0.5842,-0.6096 1.2192,-1.4986 0.6604,-0.9144 1.27,-1.905 0.635,-1.016 1.0414,-1.8034 0.381,-0.889 0.7366,-1.7018 0.381,-0.8128 0.635,-1.4732 0.2794,-0.6858 0.381,-1.143 0.1016,-0.4572 -0.0762,-0.6096 -0.1778,-0.1524 0.1524,-0.3556 0.3556,-0.2032 0.8636,-0.2286 0.508,-0.0254 1.0414,0.2286 0.5588,0.254 0.7874,1.016 0.2286,0.7366 -0.0762,1.8034 -0.3048,1.0414 -0.8636,2.1844 -0.5334,1.143 -1.1684,2.2606 -0.6096,1.1176 -1.0414,2.0066 -0.4064,0.8636 -0.4826,1.397 -0.0508,0.508 0.5334,0.4572 0.2286,-0.0254 0.635,-0.4064 0.4064,-0.381 0.889,-0.9652 0.4826,-0.6096 0.9906,-1.3462 0.508,-0.7366 0.9652,-1.4732 0.4572,-0.7366 0.8128,-1.397 0.3556,-0.6604 0.508,-1.0922 0.0762,-0.2032 0.254,-0.254 0.1778,-0.0508 0.3302,0 0.1524,0.0508 0.2286,0.2032 0.1016,0.1524 0,0.3302 z m 5.816593,0 q -0.2032,0.4318 -0.5842,1.1938 -0.381,0.7366 -0.9144,1.6002 -0.508,0.8382 -1.1176,1.7018 -0.6096,0.8636 -1.27,1.5748 -0.635,0.7112 -1.2954,1.1684 -0.6604,0.4572 -1.27,0.4572 -0.508,0.0254 -0.8636,-0.2032 -0.381,-0.2286 -0.6096,-0.635 -0.2286,-0.4318 -0.3048,-1.016 -0.0762,-0.6096 0,-1.2954 0.1016,-0.8382 0.635,-2.3622 0.5334,-1.524 1.27,-3.3274 0.7366,-1.8288 1.5494,-3.7084 0.8128,-1.905 1.4478,-3.4798 0.6604,-1.6002 1.016,-2.667 0.3556,-1.0668 0.1778,-1.2446 -0.1778,-0.1524 0.1524,-0.3555999 0.3556,-0.2032 0.8636,-0.2286 0.508,-0.0254 1.0414,0.2286 0.5588,0.2539999 0.7874,1.0159999 0.1778,0.5588 -0.1016,1.651 -0.2794,1.0668 -0.8382,2.4384 -0.5334,1.3716 -1.27,2.9718 -0.7366,1.5748 -1.4986,3.1242 -0.7366,1.5494 -1.4224,2.9972 -0.6604,1.4224 -1.0922,2.5146 -0.4064,1.0668 -0.4826,1.7018 -0.0508,0.635 0.381,0.5842 0.254,-0.0254 0.635,-0.4064 0.4064,-0.381 0.889,-0.9652 0.4826,-0.6096 0.9906,-1.3462 0.508,-0.7366 0.9652,-1.4732 0.4572,-0.7366 0.8128,-1.397 0.3556,-0.6604 0.508,-1.0922 0.0762,-0.2032 0.254,-0.254 0.1778,-0.0508 0.3302,0 0.1524,0.0508 0.2286,0.2032 0.1016,0.1524 0,0.3302 z m 9.245587,-0.508 q 0.3048,0.2032 0.1524,0.5588 -0.4318,0.9144 -1.0414,1.9304 -0.5842,0.9906 -1.3462,1.9558 -0.7366,0.9398 -1.5748,1.7526 -0.8382,0.7874 -1.7526,1.2954 -0.889,0.508 -1.8288,0.6604 -0.9398,0.1524 -1.8542,-0.2286 -1.016,-0.4064 -1.4478,-1.1684 -0.4572,-0.7874 -0.5334,-1.7272 -0.0762,-0.9398 0.1524,-1.9304 0.2286,-1.016 0.5588,-1.8542 0.6096,-1.5494 1.3462,-2.6162 0.762,-1.0922 1.6002,-1.778 0.8382,-0.6858 1.7272,-1.016 0.889,-0.3302 1.8034,-0.3302 0.9398,0 1.3716,0.4572 0.4572,0.4572 0.4572,1.1938 0,0.7366 -0.4064,1.6256 -0.4064,0.889 -1.1684,1.7526 -0.7366,0.8382 -1.8034,1.5494 -1.0668,0.6858 -2.3876,1.0414 -0.1778,0.6604 -0.254,1.3208 -0.0762,0.635 -0.0254,1.1684 0.0508,0.5334 0.2286,0.889 0.2032,0.3556 0.5842,0.4318 0.5588,0.1016 1.1938,-0.1524 0.6604,-0.2794 1.3208,-0.8128 0.6858,-0.5334 1.3208,-1.2446 0.6604,-0.7112 1.2192,-1.4986 0.5842,-0.7874 1.016,-1.5494 0.4572,-0.7874 0.7112,-1.4478 0.0762,-0.2032 0.254,-0.2794 0.2032,-0.0762 0.4064,0.0508 z m -7.4422,1.6002 q -0.127,0.2794 -0.2032,0.508 1.524,-0.5334 2.4892,-1.4478 0.9906,-0.9398 1.4732,-1.8288 0.4826,-0.9144 0.4826,-1.5748 0.0254,-0.6604 -0.4318,-0.6858 -0.6858,-0.0254 -1.7272,1.3208 -1.0414,1.3462 -2.0828,3.7084 z m 13.436576,-1.0922 q -0.2032,0.4318 -0.5842,1.1938 -0.381,0.7366 -0.9144,1.6002 -0.508,0.8382 -1.1176,1.7018 -0.6096,0.8636 -1.27,1.5748 -0.635,0.7112 -1.2954,1.1684 -0.6604,0.4572 -1.27,0.4572 -0.508,0.0254 -0.8636,-0.2032 -0.381,-0.2286 -0.6096,-0.635 -0.2286,-0.4318 -0.3048,-1.016 -0.0762,-0.6096 0,-1.2954 0.1016,-0.8382 0.635,-2.3622 0.5334,-1.524 1.27,-3.3274 0.7366,-1.8288 1.5494,-3.7084 0.8128,-1.905 1.4478,-3.4798 0.6604,-1.6002 1.016,-2.667 0.3556,-1.0668 0.1778,-1.2446 -0.1778,-0.1524 0.1524,-0.3555999 0.3556,-0.2032 0.8636,-0.2286 0.508,-0.0254 1.0414,0.2286 0.5588,0.2539999 0.7874,1.0159999 0.1778,0.5588 -0.1016,1.651 -0.2794,1.0668 -0.8382,2.4384 -0.5334,1.3716 -1.27,2.9718 -0.7366,1.5748 -1.4986,3.1242 -0.7366,1.5494 -1.4224,2.9972 -0.6604,1.4224 -1.0922,2.5146 -0.4064,1.0668 -0.4826,1.7018 -0.0508,0.635 0.381,0.5842 0.254,-0.0254 0.635,-0.4064 0.4064,-0.381 0.889,-0.9652 0.4826,-0.6096 0.9906,-1.3462 0.508,-0.7366 0.9652,-1.4732 0.4572,-0.7366 0.8128,-1.397 0.3556,-0.6604 0.508,-1.0922 0.0762,-0.2032 0.254,-0.254 0.1778,-0.0508 0.3302,0 0.1524,0.0508 0.2286,0.2032 0.1016,0.1524 0,0.3302 z m 9.245585,-0.508 q 0.3048,0.2032 0.1524,0.5588 -0.4318,0.9144 -1.0414,1.9304 -0.5842,0.9906 -1.3462,1.9558 -0.7366,0.9398 -1.574797,1.7526 -0.8382,0.7874 -1.7526,1.2954 -0.889,0.508 -1.8288,0.6604 -0.9398,0.1524 -1.8542,-0.2286 -1.016,-0.4064 -1.4478,-1.1684 -0.4572,-0.7874 -0.5334,-1.7272 -0.0762,-0.9398 0.1524,-1.9304 0.2286,-1.016 0.5588,-1.8542 0.6096,-1.5494 1.3462,-2.6162 0.762,-1.0922 1.6002,-1.778 0.8382,-0.6858 1.7272,-1.016 0.889,-0.3302 1.8034,-0.3302 0.939797,0 1.371597,0.4572 0.4572,0.4572 0.4572,1.1938 0,0.7366 -0.4064,1.6256 -0.4064,0.889 -1.168397,1.7526 -0.7366,0.8382 -1.8034,1.5494 -1.0668,0.6858 -2.3876,1.0414 -0.1778,0.6604 -0.254,1.3208 -0.0762,0.635 -0.0254,1.1684 0.0508,0.5334 0.2286,0.889 0.2032,0.3556 0.5842,0.4318 0.5588,0.1016 1.1938,-0.1524 0.6604,-0.2794 1.3208,-0.8128 0.6858,-0.5334 1.320797,-1.2446 0.6604,-0.7112 1.2192,-1.4986 0.5842,-0.7874 1.016,-1.5494 0.4572,-0.7874 0.7112,-1.4478 0.0762,-0.2032 0.254,-0.2794 0.2032,-0.0762 0.4064,0.0508 z m -7.442197,1.6002 q -0.127,0.2794 -0.2032,0.508 1.524,-0.5334 2.4892,-1.4478 0.9906,-0.9398 1.4732,-1.8288 0.482597,-0.9144 0.482597,-1.5748 0.0254,-0.6604 -0.4318,-0.6858 -0.685797,-0.0254 -1.727197,1.3208 -1.0414,1.3462 -2.0828,3.7084 z m 19.329327,11.684 q -0.1524,-0.4572 0.0508,-1.4986 0.2032,-1.0414 0.6096,-2.4384 0.4064,-1.397 0.9652,-3.048 0.5842,-1.651 1.1684,-3.302 0.6096,-1.651 1.1684,-3.2004 0.5842,-1.5748 0.9906,-2.8194 0.4064,-1.2446 0.5842,-2.0574 0.1778,-0.8128 0.0254,-0.9652 -0.127,-0.1016 0.0508,-0.2286 0.2032,-0.1524 0.5588,-0.2286 0.3556,-0.1016 0.8128,-0.127 0.4572,-0.0254 0.8636,0.0762 0.4064,0.1016 0.7112,0.381 0.3048,0.2794 0.3556,0.7874 0.1016,0.9652 -0.3302,2.5654 -0.4064,1.5748 -1.0922,3.4798 -0.6858,1.8796 -1.524,3.9116 -0.8128,2.032 -1.524,3.8608 -0.6858,1.8288 -1.143,3.2766 -0.4572,1.4732 -0.4064,2.2352 0,0.2286 -0.3556,0.4318 -0.3556,0.2286 -0.8382,0.2286 -0.4826,0 -0.9906,-0.2794 -0.4826,-0.2794 -0.7112,-1.0414 z m 25.4508,-22.1996 q 0.0254,0.4572 -0.0762,0.9652 -0.1016,0.4826 -0.4318,0.9144 -0.3302,0.4318 -0.9652,0.7366 -0.635,0.3048 -1.651,0.3302 -1.0668,0.0508 -2.794,-0.254 -1.7018,-0.3048 -3.7592,-0.7366 -2.0574,-0.4572 -4.2418,-0.9652 -2.1844,-0.508 -4.191,-0.9144 -2.0066,-0.4064 -3.6322,-0.6096 -1.6256,-0.2032 -2.5146,-0.0508 -0.6858,0.127 -1.2954,0.4318 -0.6096,0.3048 -1.0668,0.7366 -0.4572,0.4318 -0.7366,0.9652 -0.2794,0.508 -0.3048,1.0668 -0.0508,0.6604 0.1778,1.2192 0.2286,0.5334 0.6604,0.889 0.4318,0.3556 1.0414,0.508 0.6096,0.1524 1.3208,0.0254 0.254,-0.0508 0.0508,0.3556 -0.1778,0.4064 -0.6858,0.9398 -0.4826,0.5334 -1.2446,1.016 -0.7366,0.4572 -1.5748,0.5334 -0.762,0.0508 -1.4224,-0.1524 -0.635,-0.2032 -1.1176,-0.6096 -0.4826,-0.4064 -0.7366,-0.9906 -0.2286,-0.5842 -0.1778,-1.2954 0.0762,-1.2954 0.5588,-2.3876 0.508,-1.1176 1.2954,-1.9812 0.8128,-0.889 1.8288,-1.4986 1.0414,-0.635 2.2352,-0.9652 0.9652,-0.254 2.3622,-0.2032 1.397,0.0254 2.9972,0.254 1.6256,0.2032 3.3274,0.5334 1.7018,0.3302 3.2766,0.6604 1.5748,0.3048 2.921,0.5588 1.3462,0.2286 2.2098,0.254 1.143,0.0508 2.159,-0.0762 1.016,-0.127 1.7526,-0.4064 0.762,-0.2794 1.143,-0.7112 0.4064,-0.4572 0.3048,-1.0668 -0.0508,-0.254 0.381,-0.254 0.4572,0 1.016,0.254 0.5842,0.254 1.0668,0.762 0.4826,0.4826 0.5334,1.2192 z m -2.46382,9.4234 q -0.2032,0.4318 -0.5842,1.1938 -0.381,0.7366 -0.9144,1.6002 -0.508,0.8382 -1.1176,1.7018 -0.6096,0.8636 -1.27,1.5748 -0.635,0.7112 -1.2954,1.1684 -0.6604,0.4572 -1.27,0.4572 -0.508,0.0254 -0.889,-0.2032 -0.3556,-0.2286 -0.5842,-0.635 -0.2286,-0.4318 -0.3048,-1.016 -0.0762,-0.6096 0,-1.2954 0,-0.127 0.0254,-0.2286 0.0254,-0.127 0.0508,-0.254 -0.4826,0.7112 -1.016,1.3716 -0.508,0.635 -1.0414,1.143 -0.5334,0.508 -1.0668,0.8128 -0.5334,0.3048 -1.016,0.3048 -0.508,0.0254 -0.8636,-0.2032 -0.381,-0.2286 -0.6096,-0.635 -0.2286,-0.4318 -0.3048,-1.016 -0.0762,-0.6096 0,-1.2954 0.1016,-0.8382 0.4064,-1.778 0.2794,-0.9398 0.6604,-1.8796 0.381,-0.9398 0.762,-1.8034 0.4064,-0.889 0.6858,-1.6002 0.3048,-0.7112 0.4064,-1.1938 0.127,-0.4826 -0.0508,-0.6604 -0.1778,-0.1524 0.1524,-0.3556 0.3556,-0.2032 0.8636,-0.2286 0.508,-0.0254 1.0414,0.2286 0.5588,0.254 0.7874,1.016 0.2286,0.7366 -0.0762,1.8034 -0.3048,1.0414 -0.8636,2.1844 -0.5334,1.143 -1.1684,2.2606 -0.6096,1.1176 -1.0414,2.0066 -0.4064,0.8636 -0.4826,1.397 -0.0508,0.508 0.5334,0.4572 0.3048,-0.0254 0.889,-0.635 0.5842,-0.6096 1.2192,-1.4986 0.6604,-0.9144 1.27,-1.905 0.635,-1.016 1.0414,-1.8034 0.381,-0.889 0.7366,-1.7018 0.381,-0.8128 0.635,-1.4732 0.2794,-0.6858 0.381,-1.143 0.1016,-0.4572 -0.0762,-0.6096 -0.1778,-0.1524 0.1524,-0.3556 0.3556,-0.2032 0.8636,-0.2286 0.508,-0.0254 1.0414,0.2286 0.5588,0.254 0.7874,1.016 0.2286,0.7366 -0.0762,1.8034 -0.3048,1.0414 -0.8636,2.1844 -0.5334,1.143 -1.1684,2.2606 -0.6096,1.1176 -1.0414,2.0066 -0.4064,0.8636 -0.4826,1.397 -0.0508,0.508 0.5334,0.4572 0.2286,-0.0254 0.635,-0.4064 0.4064,-0.381 0.889,-0.9652 0.4826,-0.6096 0.9906,-1.3462 0.508,-0.7366 0.9652,-1.4732 0.4572,-0.7366 0.8128,-1.397 0.3556,-0.6604 0.508,-1.0922 0.0762,-0.2032 0.254,-0.254 0.1778,-0.0508 0.3302,0 0.1524,0.0508 0.2286,0.2032 0.1016,0.1524 0,0.3302 z m 9.22019,-0.508 q 0.3048,0.2032 0.1524,0.5588 -0.4318,0.9144 -1.0414,1.9304 -0.5842,0.9906 -1.3462,1.9558 -0.7366,0.9398 -1.5748,1.7526 -0.8382,0.7874 -1.7526,1.2954 -0.889,0.508 -1.8288,0.6604 -0.9398,0.1524 -1.8542,-0.2286 -1.016,-0.4064 -1.4478,-1.1684 -0.4572,-0.7874 -0.5334,-1.7272 -0.0762,-0.9398 0.1524,-1.9304 0.2286,-1.016 0.5588,-1.8542 0.6096,-1.5494 1.3462,-2.6162 0.762,-1.0922 1.6002,-1.778 0.8382,-0.6858 1.7272,-1.016 0.889,-0.3302 1.8034,-0.3302 0.9398,0 1.3716,0.4572 0.4572,0.4572 0.4572,1.1938 0,0.7366 -0.4064,1.6256 -0.4064,0.889 -1.1684,1.7526 -0.7366,0.8382 -1.8034,1.5494 -1.0668,0.6858 -2.3876,1.0414 -0.1778,0.6604 -0.254,1.3208 -0.0762,0.635 -0.0254,1.1684 0.0508,0.5334 0.2286,0.889 0.2032,0.3556 0.5842,0.4318 0.5588,0.1016 1.1938,-0.1524 0.6604,-0.2794 1.3208,-0.8128 0.6858,-0.5334 1.3208,-1.2446 0.6604,-0.7112 1.2192,-1.4986 0.5842,-0.7874 1.016,-1.5494 0.4572,-0.7874 0.7112,-1.4478 0.0762,-0.2032 0.254,-0.2794 0.2032,-0.0762 0.4064,0.0508 z m -7.4422,1.6002 q -0.127,0.2794 -0.2032,0.508 1.524,-0.5334 2.4892,-1.4478 0.9906,-0.9398 1.4732,-1.8288 0.4826,-0.9144 0.4826,-1.5748 0.0254,-0.6604 -0.4318,-0.6858 -0.6858,-0.0254 -1.7272,1.3208 -1.0414,1.3462 -2.0828,3.7084 z m 9.80437,6.0706 -0.0254,0.0254 q -0.5588,0.2794 -1.0668,0.4318 -0.508,0.1524 -0.8636,0.1524 -1.016,0 -1.5494,-0.508 -0.5588,-0.5334 -0.7366,-1.2446 -0.1778,-0.7112 -0.0508,-1.4224 0.127,-0.7112 0.4826,-1.0922 0.508,-0.5334 0.9144,-0.7112 0.4064,-0.1778 0.6858,-0.127 0.2794,0.0254 0.508,0.2286 0.254,0.2032 0.254,0.508 0,0.3302 -0.254,0.5588 -0.2286,0.2286 -0.5334,0.2286 -0.2286,0 -0.4318,-0.127 -0.2032,-0.1524 -0.2794,-0.381 -0.3302,0.381 -0.4572,0.9144 -0.127,0.5334 -0.0508,1.016 0.0762,0.4826 0.4064,0.8382 0.3048,0.3302 0.8636,0.3556 0.2032,0 0.5842,-0.1778 0.381,-0.2032 0.762,-0.635 0.4064,-0.4572 0.7112,-1.143 0.3048,-0.7112 0.3556,-1.7018 0.0762,-0.9906 -0.2032,-2.3114 -0.2794,-1.3208 -1.0668,-2.9718 -0.254,0.4826 -0.5842,1.0668 -0.3048,0.5588 -0.5588,1.0668 -0.127,0.1778 -0.3048,0.2032 -0.1778,0.0254 -0.3302,-0.0254 -0.1524,-0.0762 -0.2032,-0.2032 -0.0762,-0.1524 0.0254,-0.3302 0.2032,-0.4318 0.381,-0.762 0.1778,-0.3556 0.3556,-0.6604 0.1778,-0.3048 0.3302,-0.6096 0.1524,-0.3302 0.3302,-0.6858 -0.2794,-0.4064 -0.4318,-0.889 -0.1524,-0.4826 -0.1524,-1.016 0,-0.2286 0.0762,-0.5588 0.1016,-0.3556 0.3048,-0.6858 0.2286,-0.3556 0.6096,-0.5842 0.381,-0.254 0.9906,-0.254 0.635,0 0.9144,0.2794 0.3048,0.2794 0.3302,0.7112 0.0254,0.4318 -0.1778,0.9652 -0.2032,0.508 -0.5334,1.016 l -0.0762,0.1524 q 0.9906,1.143 1.5748,2.1844 0.6096,1.0414 0.9144,1.9812 0.3048,0.9398 0.3302,1.7526 0.0508,0.8128 -0.127,1.524 0.8382,-0.9652 1.4986,-1.905 0.6604,-0.9398 1.0922,-1.778 0.0762,-0.1778 0.2286,-0.2286 0.1524,-0.0762 0.381,0.0508 0.1778,0.1016 0.2032,0.2794 0.0508,0.1778 -0.0254,0.3302 -0.6096,1.2446 -1.4224,2.3368 -0.7874,1.0922 -1.7526,2.1844 -0.6858,0.762 -1.4478,1.3716 -0.7366,0.6096 -1.6764,1.016 z m 11.9634,-10.1092 q 0,-0.2032 0.1016,-0.381 0.127,-0.1778 0.3048,-0.3048 -0.127,-0.3048 -0.4064,-0.3048 -0.3556,-0.0254 -0.7874,0.3302 -0.4318,0.3302 -0.9398,0.9906 -0.4826,0.635 -1.016,1.6002 -0.5334,0.9398 -1.0668,2.1082 -0.3302,0.7366 -0.5588,1.6002 -0.2032,0.8382 -0.2286,1.6256 -0.0254,0.762 0.1524,1.3462 0.1778,0.5842 0.635,0.762 0.5334,0.2286 1.1176,-0.3302 0.5842,-0.5842 1.1938,-1.5494 0.6096,-0.9652 1.1684,-2.1336 0.5842,-1.1684 1.0668,-2.1336 0.4826,-1.2446 1.0668,-2.6162 0.5842,-1.397 1.143,-2.7432 0.5842,-1.3462 1.0922,-2.5908 0.5334,-1.2446 0.889,-2.2098 0.381,-0.9906 0.5334,-1.6002 0.1778,-0.635 0.0508,-0.762 -0.1778,-0.1524 0.1524,-0.3555999 0.3556,-0.2032 0.8636,-0.2286 0.508,-0.0254 1.0414,0.2286 0.5588,0.2539999 0.7874,1.0159999 0.1778,0.5588 -0.1016,1.651 -0.2794,1.0668 -0.8382,2.4384 -0.5334,1.3716 -1.27,2.9718 -0.7366,1.5748 -1.4986,3.1242 -0.7366,1.5494 -1.4224,2.9972 -0.6604,1.4224 -1.0922,2.5146 -0.4064,1.0668 -0.4826,1.7018 -0.0508,0.635 0.381,0.5842 0.254,-0.0254 0.635,-0.4064 0.4064,-0.381 0.889,-0.9652 0.4826,-0.6096 0.9906,-1.3462 0.508,-0.7366 0.9652,-1.4732 0.4572,-0.7366 0.8128,-1.397 0.3556,-0.6604 0.508,-1.0922 0.0762,-0.2032 0.254,-0.254 0.1778,-0.0508 0.3302,0 0.1524,0.0508 0.2286,0.2032 0.1016,0.1524 0,0.3302 -0.2032,0.4318 -0.5842,1.1938 -0.381,0.7366 -0.9144,1.6002 -0.508,0.8382 -1.1176,1.7018 -0.6096,0.8636 -1.27,1.5748 -0.635,0.7112 -1.2954,1.1684 -0.6604,0.4572 -1.27,0.4572 -0.9652,0.0508 -1.4478,-0.762 -0.4572,-0.8382 -0.3556,-2.1082 -0.4826,0.7874 -1.016,1.4224 -0.5334,0.6096 -1.143,0.9906 -0.6096,0.381 -1.3208,0.4572 -0.7112,0.0762 -1.524,-0.2794 -1.016,-0.4064 -1.4478,-1.1938 -0.4572,-0.7874 -0.5334,-1.7018 -0.0762,-0.9398 0.1524,-1.9304 0.2286,-1.016 0.5588,-1.8542 0.6096,-1.5494 1.3462,-2.6416 0.762,-1.1176 1.6002,-1.8034 0.8382,-0.7112 1.7272,-1.016 0.889,-0.3048 1.8034,-0.2794 0.3048,0.0254 0.635,0.127 0.3556,0.0762 0.635,0.2794 0.3048,0.2032 0.508,0.5588 0.2032,0.3302 0.2032,0.8382 0,0.508 -0.2286,0.7366 -0.2032,0.254 -0.5588,0.254 -0.3048,0 -0.5588,-0.2032 -0.2286,-0.2032 -0.2286,-0.5334 z m 13.2334,0 q 0,-0.2032 0.1016,-0.381 0.127,-0.1778 0.3048,-0.3048 -0.127,-0.3048 -0.4064,-0.3048 -0.3556,-0.0254 -0.7874,0.3302 -0.4318,0.3302 -0.9398,0.9906 -0.4826,0.635 -1.016,1.6002 -0.5334,0.9398 -1.0668,2.1082 -0.3302,0.7366 -0.5588,1.6002 -0.2032,0.8382 -0.2286,1.6256 -0.0254,0.762 0.1524,1.3462 0.1778,0.5842 0.635,0.762 0.3556,0.1524 0.7366,-0.0762 0.4064,-0.2286 0.7874,-0.7112 0.4064,-0.4826 0.8128,-1.1684 0.4318,-0.6858 0.8128,-1.4224 0.4064,-0.762 0.762,-1.4986 0.381,-0.762 0.7112,-1.397 0.3556,-0.8382 0.6858,-1.5748 0.3556,-0.762 0.5842,-1.3462 0.2286,-0.6096 0.3048,-1.016 0.0762,-0.4318 -0.0762,-0.5842 -0.1778,-0.1524 0.1524,-0.3556 0.3556,-0.2032 0.8636,-0.2286 0.508,-0.0254 1.0414,0.2286 0.5588,0.254 0.7874,1.016 0.2286,0.7366 -0.0762,1.8034 -0.3048,1.0414 -0.8636,2.1844 -0.5334,1.143 -1.1684,2.2606 -0.6096,1.1176 -1.0414,2.0066 -0.4064,0.8636 -0.4826,1.397 -0.0508,0.508 0.5334,0.4572 0.2286,-0.0254 0.635,-0.4064 0.4064,-0.381 0.889,-0.9652 0.4826,-0.6096 0.9906,-1.3462 0.5334,-0.7366 0.9652,-1.4732 0.4572,-0.7366 0.8128,-1.397 0.3556,-0.6604 0.508,-1.0922 0.0762,-0.2032 0.254,-0.254 0.1778,-0.0508 0.3302,0 0.1524,0.0508 0.2286,0.2032 0.1016,0.1524 0,0.3302 -0.2032,0.4318 -0.5842,1.1938 -0.381,0.7366 -0.9144,1.6002 -0.508,0.8382 -1.1176,1.7018 -0.6096,0.8636 -1.27,1.5748 -0.635,0.7112 -1.2954,1.1684 -0.6604,0.4572 -1.27,0.4572 -0.9652,0.0508 -1.4478,-0.7874 -0.4826,-0.8382 -0.3556,-2.1336 -0.4826,0.7874 -1.016,1.4478 -0.5334,0.635 -1.1684,1.016 -0.6096,0.381 -1.3208,0.4572 -0.6858,0.0762 -1.524,-0.2794 -1.016,-0.4064 -1.4478,-1.1938 -0.4572,-0.7874 -0.5334,-1.7018 -0.0762,-0.9398 0.1524,-1.9304 0.2286,-1.016 0.5588,-1.8542 0.6096,-1.5494 1.3462,-2.6416 0.762,-1.1176 1.6002,-1.8034 0.8382,-0.7112 1.7272,-1.016 0.889,-0.3048 1.8034,-0.2794 0.3048,0.0254 0.635,0.127 0.3556,0.0762 0.635,0.2794 0.3048,0.2032 0.508,0.5588 0.2032,0.3302 0.2032,0.8382 0,0.5588 -0.254,0.762 -0.2032,0.2286 -0.5334,0.2286 -0.3048,0 -0.5588,-0.2032 -0.2286,-0.2032 -0.2286,-0.5334 z m 3.35277,16.891 q -0.0254,-0.2286 0.0762,-0.5588 0.0762,-0.3048 0.4318,-0.6604 0.4064,-0.4064 0.9906,-0.7366 0.5588,-0.3302 1.1938,-0.635 0.6096,-0.3048 1.1938,-0.635 0.6096,-0.3048 1.0414,-0.6858 0.3048,-0.9398 0.7874,-2.1082 0.508,-1.143 1.0668,-2.4384 -0.762,0.9398 -1.5494,1.5748 -0.7874,0.6096 -1.524,0.635 -0.508,0.0254 -0.8636,-0.2032 -0.381,-0.2286 -0.6096,-0.635 -0.2286,-0.4318 -0.3048,-1.016 -0.0762,-0.6096 0,-1.2954 0.1016,-0.8382 0.4064,-1.778 0.2794,-0.9398 0.6604,-1.8796 0.381,-0.9398 0.762,-1.8034 0.4064,-0.889 0.6858,-1.6002 0.3048,-0.7112 0.4064,-1.1938 0.127,-0.508 -0.0508,-0.6604 -0.1778,-0.1524 0.1524,-0.3556 0.3556,-0.2032 0.8636,-0.2286 0.508,-0.0254 1.0414,0.2286 0.5588,0.254 0.7874,1.016 0.2286,0.7366 -0.0762,1.8034 -0.3048,1.0414 -0.8636,2.1844 -0.5334,1.143 -1.1684,2.2606 -0.6096,1.1176 -1.0414,2.0066 -0.4064,0.8636 -0.4826,1.397 -0.0508,0.508 0.5334,0.4572 0.3048,-0.0254 0.889,-0.635 0.6096,-0.635 1.2446,-1.524 0.6604,-0.9144 1.2954,-1.9304 0.635,-1.016 1.016,-1.8034 0.4064,-0.9398 0.7366,-1.778 0.3556,-0.8382 0.5588,-1.4986 0.2286,-0.6604 0.3048,-1.0922 0.0762,-0.4572 -0.0508,-0.6096 -0.127,-0.1524 0.2286,-0.3556 0.3556,-0.2032 0.889,-0.2286 0.5334,-0.0254 1.0414,0.254 0.5334,0.2794 0.762,1.0668 0.127,0.4318 -0.127,1.397 -0.254,0.9398 -0.7112,2.1336 -0.4572,1.1938 -1.0414,2.5146 -0.5842,1.2954 -1.1176,2.4638 -0.5334,1.143 -0.9398,2.0066 -0.4064,0.8636 -0.508,1.1938 0.9144,-0.6096 1.905,-1.7018 0.9906,-1.1176 1.8542,-2.3114 0.8636,-1.2192 1.524,-2.3622 0.6604,-1.143 0.9144,-1.8288 0.0762,-0.2286 0.254,-0.2794 0.1778,-0.0762 0.3302,-0.0254 0.1524,0.0508 0.2286,0.2032 0.1016,0.1524 0.0254,0.3302 -0.5842,1.2954 -1.4732,2.7432 -0.8636,1.4224 -1.905,2.7432 -1.0414,1.3208 -2.1844,2.3622 -1.143,1.0668 -2.2352,1.6256 -0.1524,0.381 -0.4064,0.9652 -0.254,0.6096 -0.5334,1.2192 -0.254,0.6096 -0.4826,1.143 -0.2032,0.5334 -0.3048,0.7874 -0.254,0.7112 -0.8128,1.1938 -0.5334,0.508 -1.2192,0.762 -0.6858,0.2794 -1.4224,0.3048 -0.7366,0.0508 -1.3716,-0.1524 -0.635,-0.1778 -1.0922,-0.635 -0.4826,-0.4318 -0.6096,-1.1176 z m 4.572,-2.7686 q -0.381,0.3048 -0.8636,0.5334 -0.4826,0.2286 -0.9652,0.4572 -0.4826,0.2286 -0.9144,0.508 -0.4572,0.2794 -0.7366,0.6604 -0.1778,0.254 -0.127,0.5588 0.0254,0.3048 0.2286,0.5334 0.1778,0.254 0.4826,0.381 0.2794,0.127 0.635,0.0254 0.3556,-0.1016 0.7366,-0.508 0.381,-0.381 0.7112,-1.1938 0.1524,-0.3556 0.3556,-0.8382 0.2286,-0.4826 0.4572,-1.1176 z"
       id="text60227"
       aria-label="Ukulele Tuesday"
       inkscape:export-filename="../ut-logo-wordmark.svg"
       inkscape:export-xdpi="300"
       inkscape:export-ydpi="300" />
  </g>
</svg>
